<?xml version="1.0" encoding="UTF-8" standalone="no"?>
<svg
   viewBox="0 0 32 32"
   version="1.1"
   id="svg18"
   sodipodi:docname="error.svg"
   inkscape:version="1.1.2 (0a00cf5339, 2022-02-04)"
   xmlns:inkscape="http://www.inkscape.org/namespaces/inkscape"
   xmlns:sodipodi="http://sodipodi.sourceforge.net/DTD/sodipodi-0.dtd"
   xmlns="http://www.w3.org/2000/svg"
   xmlns:svg="http://www.w3.org/2000/svg">
  <sodipodi:namedview
     id="namedview20"
     pagecolor="#ffffff"
     bordercolor="#666666"
     borderopacity="1.0"
     inkscape:pageshadow="2"
     inkscape:pageopacity="0.0"
     inkscape:pagecheckerboard="0"
     showgrid="false"
     inkscape:zoom="16.34375"
     inkscape:cx="15.969407"
     inkscape:cy="16"
     inkscape:window-width="1366"
     inkscape:window-height="705"
     inkscape:window-x="0"
     inkscape:window-y="0"
     inkscape:window-maximized="1"
     inkscape:current-layer="svg18" />
  <defs
     id="defs4">
    <style
       id="style2">.cls-1{fill:none;}</style>
  </defs>
  <title
     id="title6" />
  <g
     data-name="Layer 2"
     id="Layer_2"
     style="fill:#455a64;fill-opacity:1">
    <path
       d="M16,19a1,1,0,0,1-1-.76l-1.51-6.06A2.5,2.5,0,0,1,14,10a2.56,2.56,0,0,1,4,0,2.5,2.5,0,0,1,.46,2.19L17,18.24A1,1,0,0,1,16,19Zm0-8a.54.54,0,0,0-.44.22.52.52,0,0,0-.1.48L16,13.88l.54-2.18a.52.52,0,0,0-.1-.48A.54.54,0,0,0,16,11Z"
       id="path8"
       style="fill:#455a64;fill-opacity:1" />
    <circle
       cx="16"
       cy="21.5"
       r="1.5"
       id="circle10"
       style="fill:#455a64;fill-opacity:1" />
    <path
       d="M16,29A13,13,0,1,1,29,16,13,13,0,0,1,16,29ZM16,5A11,11,0,1,0,27,16,11,11,0,0,0,16,5Z"
       id="path12"
       style="fill:#455a64;fill-opacity:1" />
  </g>
  <g
     id="frame">
    <rect
       class="cls-1"
       height="32"
       width="32"
       id="rect15" />
  </g>
</svg>
