<?xml version="1.0" encoding="UTF-8" standalone="no"?>
<!-- Generator: Adobe Illustrator 26.4.1, SVG Export Plug-In . SVG Version: 6.00 Build 0)  -->

<svg
   version="1.1"
   id="Layer_1"
   x="0px"
   y="0px"
   viewBox="0 0 360 360"
   style="enable-background:new 0 0 360 360;"
   xml:space="preserve"
   sodipodi:docname="logo.svg"
   inkscape:version="1.1.2 (0a00cf5339, 2022-02-04)"
   xmlns:inkscape="http://www.inkscape.org/namespaces/inkscape"
   xmlns:sodipodi="http://sodipodi.sourceforge.net/DTD/sodipodi-0.dtd"
   xmlns="http://www.w3.org/2000/svg"
   xmlns:svg="http://www.w3.org/2000/svg"><defs
   id="defs21" /><sodipodi:namedview
   id="namedview19"
   pagecolor="#ffffff"
   bordercolor="#666666"
   borderopacity="1.0"
   inkscape:pageshadow="2"
   inkscape:pageopacity="0.0"
   inkscape:pagecheckerboard="0"
   showgrid="false"
   inkscape:zoom="1.4527778"
   inkscape:cx="180.34417"
   inkscape:cy="180"
   inkscape:window-width="1366"
   inkscape:window-height="705"
   inkscape:window-x="0"
   inkscape:window-y="0"
   inkscape:window-maximized="1"
   inkscape:current-layer="Layer_1" />
<g
   id="g16"
   style="fill:#ffffff">
	<g
   id="g14"
   style="fill:#ffffff">
		<path
   d="M233.73,185.68c0,0-0.63-2.31-0.63-4.01v-26.72h10.7v51.46l-34.26-28.37c-1.83-1.56-2.91-3.3-2.91-3.3    s0.54,1.92,0.54,3.58l-0.01,26.93h-10.7v-51.26l33.94,27.8C232.22,183.34,233.73,185.68,233.73,185.68L233.73,185.68z"
   id="path2"
   style="fill:#ffffff" />
		<path
   d="M330.63,154.95c16.95,0,21.3,6.69,21.3,16.3c0,6.97-5.13,13.79-15.47,14.6l-1.13,0.05c0,0,1,0.18,2.04,1.19l18.78,18.16    h-14.51l-26.21-26.61h13.06c11.69,0,12.02-6.16,12.11-7.72c0.22-3.99-1.06-7.19-9.98-7.19h-14.92v41.52h-11.13v-50.3H330.63    L330.63,154.95z"
   id="path4"
   style="fill:#ffffff" />
		<path
   d="M248.62,180.82c0-21.08,17.64-26.61,32.47-26.61c5.94,0,11.2,0.53,16.72,1.7l0.02,10.68c-3.18-0.97-9.57-3.12-16.74-3.12    c-14.05,0-20.88,5.46-20.88,17.34c0,9.73,7.35,15.93,20.88,15.93c7.17,0,14.35-1.71,17.82-2.99l-0.02,10.37    c-5.53,1.17-11.87,1.89-17.8,1.89C265.25,206.02,248.62,198.33,248.62,180.82L248.62,180.82z"
   id="path6"
   style="fill:#ffffff" />
		<path
   d="M128.19,156.25l10.44,9.83c-0.28,0.13-0.61,0.28-1,0.48c-0.6,0.31-1.32,0.73-2.19,1.33c-1.72,1.19-3.96,3.07-6.83,6.17    l-20.39,21.58c-3.5,3.69-7.05,6.62-10.36,8.17l-10.44-9.83c0.28-0.13,0.62-0.28,0.99-0.48c0.6-0.3,1.32-0.73,2.19-1.33    c1.72-1.19,3.97-3.07,6.83-6.17l20.39-21.55C121.33,160.76,124.89,157.79,128.19,156.25L128.19,156.25z"
   id="path8"
   style="fill:#ffffff" />
		<path
   d="M87.8,208.43c4.62,0,8.85-0.92,11.73-2.41c1.31-0.69,3.19-1.87,4.81-3.12c1.61-1.26,3.88-3.21,5.81-5.26l20.42-21.52    c5.15-5.42,8.24-7.1,10.12-7.76l10.47,9.92c-2.19,2.34-28.25,30.1-28.25,30.1c-1.78,1.92-3.65,3.77-4.92,4.94    c-1.22,1.13-3.31,2.8-4.4,3.6c-6.13,4.5-14.32,8.14-25.35,8.14c-24.98,0-45.19-20.34-45.19-43.75c0-29.05,22.7-45.91,43.37-45.91    c6.33-0.19,11.42,0.88,15.43,2.24c3.72,1.27,6.52,2.79,8.56,3.83c-2.4,1.54-4.73,3.64-8.57,7.74l-4.18,4.5    c-0.97-0.37-5.24-1.86-10.74-1.69c-13.26,0.39-27.77,11.15-27.24,28.78C60.17,197.28,73.76,208.43,87.8,208.43L87.8,208.43z"
   id="path10"
   style="fill:#ffffff" />
		<path
   d="M126.4,154.19c-1.32,0.68-3.2,1.87-4.81,3.12c-1.61,1.25-3.88,3.21-5.82,5.25l-20.41,21.52    c-5.15,5.42-8.25,7.1-10.12,7.76l-10.48-9.91c2.19-2.34,28.25-30.1,28.25-30.1c1.78-1.92,3.65-3.76,4.92-4.94    c1.22-1.13,3.32-2.8,4.4-3.6c6.12-4.49,14.32-8.13,25.35-8.13c24.99,0,45.18,20.33,45.18,43.75c0,29.06-22.69,45.91-43.37,45.91    c-6.33,0.19-11.42-0.88-15.44-2.24c-3.72-1.27-6.54-2.8-8.57-3.84c2.54-1.71,4.72-3.6,8.59-7.73l4.19-4.5    c0.96,0.36,5.24,1.86,10.73,1.7c13.26-0.39,27.77-11.15,27.25-28.79c-0.49-16.49-14.09-27.64-28.12-27.64    C133.51,151.78,129.28,152.69,126.4,154.19L126.4,154.19z"
   id="path12"
   style="fill:#ffffff" />
	</g>
</g>
</svg>
